# xmcd
#
# Track frame offsets: 
#        150
#        15600
#        29430
#        45230
#        61477
#        77747
#        95007
#        108085
#        122985
#        138485
#        148437
#        159847
#        177700
#        193212
#        206957
#        222082
#        240682
#        251642
#
# Disc length: 3476 seconds
#
# Revision: 2
# Processed by: cddbd v1.5.2PL0 Copyright (c) Steve Scherf et al.
# Submitted via: ExactAudioCopy v0.99pb5
#
DISCID=0f0d9212
DTITLE=The Moody Brothers - The Line Dance Album II
DYEAR=1997
DGENRE=Line Dance
TTITLE0=Achy Breaky Heart 
TTITLE1=Elvira 
TTITLE2=Shame On Me
TTITLE3=Black Coffee
TTITLE4=It's My Turn To Sing With Willie
TTITLE5=Sailor, Soldier, Christian 
TTITLE6=Wooden Horses
TTITLE7=Paul And Silas
TTITLE8=Fire On The Mountain
TTITLE9=Southern Railroad
TTITLE10=Golden Slipper
TTITLE11=Take A Letter Marie 
TTITLE12=Reggae Cowboy
TTITLE13=Pave Your Way Into Tomorrow 
TTITLE14=Rockabilly Girl
TTITLE15=Eighteen Wheeler
TTITLE16=Down The Road - Sally Goodin' 
TTITLE17=Foggy Mountain Breakdown
EXTD=
EXTT0=
EXTT1=
EXTT2=
EXTT3=
EXTT4=
EXTT5=
EXTT6=
EXTT7=
EXTT8=
EXTT9=
EXTT10=
EXTT11=
EXTT12=
EXTT13=
EXTT14=
EXTT15=
EXTT16=
EXTT17=
PLAYORDER=
